<svg width="528" height="289" viewBox="0 0 528 289" fill="none" xmlns="http://www.w3.org/2000/svg">
<path d="M152.702 225H128.95V175.847H0.623869V158.693L124.991 3.97552H152.702V154.404H188.99V175.847H152.702V225ZM30.9735 154.404H128.95V33.6654H127.301L30.9735 152.755V154.404ZM298.989 228.299C243.898 228.299 207.61 185.414 207.61 114.488C207.61 43.562 243.898 0.676655 298.989 0.676655C354.41 0.676655 390.368 43.562 390.368 114.488C390.368 185.414 354.41 228.299 298.989 228.299ZM298.989 205.537C342.534 205.537 365.626 177.826 365.626 114.488C365.626 51.1494 342.534 23.4389 298.989 23.4389C255.774 23.4389 232.682 51.1494 232.682 114.488C232.682 177.826 255.774 205.537 298.989 205.537ZM467.958 287.019C465.979 288.118 465.099 287.459 465.319 285.039L492.7 128.013L512.823 111.849L426.722 202.238C425.183 203.777 425.623 204.547 428.042 204.547C442.117 204.547 454.543 204.547 465.319 204.547C476.315 204.327 486.652 204.107 496.329 203.887C506.225 203.667 516.452 203.337 527.008 202.898C527.668 202.898 527.888 204.657 527.668 208.176C527.448 211.475 527.008 214.883 526.348 218.402C525.689 221.701 525.029 223.351 524.369 223.351C513.813 222.691 502.926 222.251 491.71 222.031C480.494 221.591 467.848 221.371 453.773 221.371C439.698 221.151 423.094 221.041 403.96 221.041C403.08 221.041 402.531 220.711 402.311 220.052C401.871 219.172 402.091 218.292 402.97 217.413L523.379 91.3956C523.819 90.9558 524.699 90.8458 526.018 91.0658C527.338 91.2857 527.778 91.9455 527.338 93.0451L495.339 277.122C494.899 279.541 493.909 281.081 492.37 281.741L467.958 287.019Z" fill="white"/>
</svg>
