<svg width="1257" height="647" viewBox="0 0 1257 647" fill="none" xmlns="http://www.w3.org/2000/svg">
<g clip-path="url(#clip0_80_1877)">
<g opacity="0.4">
<path opacity="0.3" d="M1154.66 344.222C1144.22 368.393 1119.55 390.778 1083.71 410.558C1047.88 430.338 1000.96 447.473 946.175 461.138C836.611 488.469 695.719 501.894 549.484 494.919C403.248 487.943 279.4 461.89 197.378 425.422C156.365 407.187 125.833 386.357 108.18 364.027C90.5252 341.695 85.7833 317.906 96.2181 293.736C106.653 269.565 131.328 247.18 167.163 227.399C202.996 207.62 249.918 190.485 304.702 176.819C414.267 149.489 555.158 136.064 701.394 143.039C847.63 150.015 971.478 176.068 1053.5 212.536C1094.51 230.771 1125.04 251.6 1142.7 273.931C1160.35 296.263 1165.09 320.051 1154.66 344.222Z" stroke="#F2F6F6"/>
<path opacity="0.2" d="M1148.97 51.5138C1167.36 71.0301 1170.47 97.3726 1160.18 128.386C1149.9 159.394 1126.24 194.996 1091.26 232.945C1021.29 308.839 906.083 394.042 762.209 470.549C618.334 547.057 473.072 600.365 354.534 624.711C295.262 636.885 242.703 641.811 200.355 638.791C158 635.771 125.962 624.811 107.572 605.295C89.1823 585.778 86.0716 559.436 96.3579 528.422C106.642 497.414 130.297 461.812 165.282 423.864C235.248 347.97 350.456 262.767 494.331 186.259C638.206 109.751 783.468 56.4435 902.006 32.0972C961.278 19.9234 1013.84 14.9971 1056.18 18.0171C1098.54 21.0376 1130.58 31.9974 1148.97 51.5138Z" stroke="#CCF6F8"/>
<path d="M1242.63 157.503C1249.68 182.917 1239.33 211.7 1214.32 242.044C1189.32 272.377 1149.75 304.177 1098.62 335.576C996.363 398.371 847.95 459.504 677.621 504.074C507.291 548.644 347.332 568.204 226.415 563.807C165.952 561.608 115.281 553.421 77.9629 539.395C40.6302 525.364 16.7708 505.535 9.71285 480.121C2.6549 454.707 13.0137 425.923 38.0224 395.579C63.0216 365.247 102.588 333.447 153.719 302.048C255.976 239.253 404.389 178.12 574.719 133.55C745.049 88.9794 905.007 69.4201 1025.92 73.8168C1086.39 76.0153 1137.06 84.2026 1174.38 98.2285C1211.71 112.26 1235.57 132.089 1242.63 157.503Z" stroke="#23C0D0"/>
<circle opacity="0.4" cx="190.5" cy="560.5" r="10.5" fill="#23C0D0" stroke="#CCF6F8" stroke-width="4"/>
<circle opacity="0.4" cx="958" cy="74" r="6" fill="#23C0D0" stroke="#CCF6F8" stroke-width="4"/>
<circle opacity="0.4" cx="897" cy="434" r="6" fill="#23C0D0" stroke="#CCF6F8" stroke-width="4"/>
<circle opacity="0.4" cx="256" cy="248" r="6" fill="#23C0D0" stroke="#CCF6F8" stroke-width="4"/>
</g>
</g>
<defs>
<clipPath id="clip0_80_1877">
<rect width="1257" height="647" fill="white"/>
</clipPath>
</defs>
</svg>
