<svg width="1449" height="929" viewBox="0 0 1449 929" fill="none" xmlns="http://www.w3.org/2000/svg">
<g opacity="0.4">
<path opacity="0.3" d="M1250.66 480.222C1240.22 504.393 1215.55 526.778 1179.71 546.558C1143.88 566.338 1096.96 583.473 1042.18 597.138C932.611 624.469 791.719 637.894 645.484 630.919C499.248 623.943 375.4 597.89 293.378 561.422C252.365 543.187 221.833 522.357 204.18 500.027C186.525 477.695 181.783 453.906 192.218 429.736C202.653 405.565 227.328 383.18 263.164 363.399C298.996 343.62 345.918 326.485 400.703 312.819C510.267 285.489 651.158 272.064 797.394 279.039C943.63 286.015 1067.48 312.068 1149.5 348.536C1190.51 366.771 1221.04 387.6 1238.7 409.931C1256.35 432.263 1261.09 456.051 1250.66 480.222Z" stroke="#F2F6F6"/>
<path opacity="0.2" d="M1244.97 187.514C1263.36 207.03 1266.47 233.372 1256.18 264.386C1245.9 295.394 1222.24 330.996 1187.26 368.945C1117.29 444.839 1002.08 530.041 858.209 606.549C714.334 683.057 569.072 736.365 450.534 760.711C391.262 772.885 338.703 777.811 296.355 774.791C254 771.771 221.962 760.811 203.572 741.294C185.182 721.778 182.072 695.436 192.358 664.422C202.642 633.414 226.297 597.812 261.282 559.863C331.248 483.969 446.456 398.767 590.331 322.259C734.206 245.751 879.468 192.443 998.006 168.097C1057.28 155.923 1109.84 150.997 1152.18 154.017C1194.54 157.038 1226.58 167.997 1244.97 187.514Z" stroke="#CCF6F8"/>
<path d="M1338.63 293.503C1345.68 318.917 1335.33 347.7 1310.32 378.044C1285.32 408.377 1245.75 440.177 1194.62 471.576C1092.36 534.371 943.95 595.504 773.62 640.074C603.291 684.644 443.332 704.204 322.414 699.807C261.952 697.608 211.281 689.421 173.963 675.395C136.63 661.364 112.771 641.535 105.713 616.121C98.6548 590.707 109.014 561.923 134.022 531.579C159.021 501.247 198.588 469.447 249.719 438.048C351.976 375.252 500.389 314.12 670.719 269.55C841.049 224.979 1001.01 205.42 1121.92 209.817C1182.39 212.015 1233.06 220.202 1270.38 234.228C1307.71 248.26 1331.57 268.089 1338.63 293.503Z" stroke="#23C0D0"/>
<circle opacity="0.4" cx="286.5" cy="696.5" r="10.5" fill="#23C0D0" stroke="#CCF6F8" stroke-width="4"/>
<circle opacity="0.4" cx="1054" cy="210" r="6" fill="#23C0D0" stroke="#CCF6F8" stroke-width="4"/>
<circle opacity="0.4" cx="993" cy="570" r="6" fill="#23C0D0" stroke="#CCF6F8" stroke-width="4"/>
<circle opacity="0.4" cx="352" cy="384" r="6" fill="#23C0D0" stroke="#CCF6F8" stroke-width="4"/>
</g>
</svg>
