<svg width="132" height="48" viewBox="0 0 132 48" fill="none" xmlns="http://www.w3.org/2000/svg">
<path d="M0.558838 23.395H14.2731V44.6018C14.2731 46.4786 12.7517 48 10.8749 48H3.95707C2.08028 48 0.558838 46.4786 0.558838 44.6018V23.395Z" fill="white"/>
<path d="M0.558838 3.39823C0.558838 1.52144 2.08028 0 3.95707 0H10.8749C12.7517 0 14.2731 1.52144 14.2731 3.39823V11.6975H3.95707C2.08028 11.6975 0.558838 10.176 0.558838 8.29925V3.39823Z" fill="white"/>
<path d="M0.558838 23.395H27.9874V31.6942C27.9874 33.571 26.466 35.0924 24.5892 35.0924H3.95707C2.08028 35.0924 0.558838 33.571 0.558838 31.6942V23.395Z" fill="white"/>
<path d="M14.2731 11.6975H24.5892C26.466 11.6975 27.9874 13.2189 27.9874 15.0957V23.395H14.2731V11.6975Z" fill="white"/>
<path d="M38.1052 33.8828H36.1638V15.5626H48.4138V17.3399H38.1052V24.3125H48.0036V26.1172H38.1052V33.8828ZM52.3389 18.5704H50.3975V15.5626H52.3389V18.5704ZM52.3389 33.8828H50.3975V20.211H52.3389V33.8828ZM57.1821 33.8828H55.2134V20.375H56.9907V23.1641H57.0728C57.5923 21.7422 59.1235 20.1016 61.9126 20.1016C65.3852 20.1016 66.9712 22.3438 66.9712 25.5977V33.8828H65.0298V26.0352C65.0298 23.1094 64.0727 21.8243 61.311 21.8243C58.6313 21.8243 57.1821 23.0821 57.1821 26.0899V33.8828ZM71.9868 33.8828H70.0454V15.5626H77.2094C81.0376 15.5626 83.854 17.7774 83.854 21.5782C83.854 25.4336 81.0376 27.6211 77.2094 27.6211H71.9868V33.8828ZM77.5102 17.3399H71.9868V25.8438H77.5102C80.4907 25.8438 81.8852 24.586 81.8852 21.5782C81.8852 18.5977 80.4907 17.3399 77.5102 17.3399ZM90.8623 34.1562C87.3349 34.1562 85.6943 31.7227 85.6943 28.4961V20.375H87.6631V28.2227C87.6631 31.1484 88.8388 32.4336 91.4912 32.4336C93.9794 32.4336 95.6748 31.1211 95.6748 27.9492V20.375H97.6162V33.8828H95.8388V30.9024H95.7568C95.2099 32.4609 93.6787 34.1562 90.8623 34.1562ZM102.573 33.8828H100.604V15.5626H102.573V33.8828ZM110.913 34.1562C107.222 34.1562 105.198 32.5977 105.198 29.4531V29.3985H107.113V29.7266C107.113 31.5859 107.878 32.4883 110.941 32.4883C113.456 32.4883 114.113 31.7774 114.113 30.4102C114.113 29.043 113.265 28.5508 111.214 28.168L108.972 27.7852C106.784 27.375 105.198 26.3633 105.198 23.9844C105.198 21.6602 107.167 20.1016 110.366 20.1016C113.456 20.1016 115.726 21.6875 115.726 24.7227V24.8594H113.839V24.6407C113.839 23.0274 113.21 21.7969 110.312 21.7969C107.851 21.7969 107.085 22.5899 107.085 23.9571C107.085 25.3242 107.769 25.7891 109.792 26.1719L112.089 26.6094C114.441 27.0469 115.999 28.086 115.999 30.3281C115.999 32.7344 114.03 34.1562 110.913 34.1562ZM124.359 34.1562C120.203 34.1562 118.043 31.2305 118.043 27.1289C118.043 23.0274 120.477 20.1016 124.332 20.1016C127.586 20.1016 130.266 22.0704 130.266 26.0625C130.266 26.6914 130.211 27.293 130.129 27.6758H119.902C119.984 30.6563 121.16 32.4063 124.387 32.4063C127.121 32.4063 128.215 31.1758 128.215 29.5352V29.3711H130.156V29.5625C130.156 32.1602 127.805 34.1562 124.359 34.1562ZM124.277 21.7969C121.27 21.7969 120.066 23.5196 119.902 26.2539H128.406C128.516 23.0547 126.93 21.7969 124.277 21.7969Z" fill="white"/>
</svg>
