<svg width="30" height="27" viewBox="0 0 30 27" fill="none" xmlns="http://www.w3.org/2000/svg">
<path d="M29.75 11.9997C29.7497 11.2667 29.5346 10.5498 29.1312 9.93772C28.7279 9.32563 28.154 8.84518 27.4805 8.55577C26.807 8.26637 26.0634 8.18071 25.3417 8.30938C24.6201 8.43805 23.952 8.77541 23.42 9.27974C21.25 8.09349 18.625 7.39599 15.8812 7.27224L16.6175 2.85349L19.2625 3.26099C19.3252 3.92173 19.6248 4.53749 20.106 4.99464C20.5872 5.4518 21.2175 5.7195 21.8805 5.74837C22.5436 5.77724 23.1948 5.56533 23.7139 5.15172C24.2329 4.73812 24.5849 4.15074 24.7049 3.49795C24.8248 2.84516 24.7046 2.17102 24.3665 1.59991C24.0283 1.02879 23.495 0.599243 22.865 0.390511C22.235 0.181779 21.5507 0.20795 20.9384 0.464195C20.3262 0.72044 19.8273 1.18947 19.5337 1.78474L16.1137 1.25849C15.919 1.22848 15.7203 1.2763 15.5605 1.39162C15.4008 1.50693 15.2928 1.68047 15.26 1.87474L14.3625 7.26099C11.5325 7.35349 8.81123 8.05849 6.57998 9.27974C6.2174 8.92855 5.78765 8.65417 5.31648 8.47305C4.84532 8.29193 4.34243 8.2078 3.83797 8.2257C3.33351 8.2436 2.83786 8.36316 2.38071 8.57722C1.92357 8.79128 1.51434 9.09542 1.17757 9.47143C0.840793 9.84744 0.583397 10.2876 0.420806 10.7655C0.258215 11.2433 0.193776 11.7491 0.231352 12.2525C0.268928 12.7559 0.407744 13.2465 0.639482 13.6949C0.87122 14.1434 1.19111 14.5404 1.57998 14.8622C1.36185 15.5538 1.25056 16.2746 1.24998 16.9997C1.24998 19.6572 2.71748 22.136 5.38123 23.9797C7.95998 25.766 11.375 26.7497 15 26.7497C18.625 26.7497 22.04 25.766 24.6187 23.9797C27.2825 22.136 28.75 19.6572 28.75 16.9997C28.7498 16.2747 28.6389 15.5539 28.4212 14.8622C28.8364 14.5095 29.1702 14.0709 29.3995 13.5767C29.6289 13.0826 29.7485 12.5445 29.75 11.9997ZM22 1.74974C22.2472 1.74974 22.4889 1.82306 22.6944 1.96041C22.9 2.09776 23.0602 2.29298 23.1548 2.52139C23.2494 2.7498 23.2742 3.00113 23.226 3.24361C23.1777 3.48608 23.0587 3.70881 22.8839 3.88363C22.709 4.05844 22.4863 4.17749 22.2438 4.22573C22.0014 4.27396 21.75 4.2492 21.5216 4.15459C21.2932 4.05998 21.098 3.89977 20.9606 3.69421C20.8233 3.48865 20.75 3.24697 20.75 2.99974C20.75 2.66822 20.8817 2.35028 21.1161 2.11586C21.3505 1.88144 21.6685 1.74974 22 1.74974ZM27.1437 13.9385C26.9875 14.0312 26.8702 14.1774 26.8136 14.3501C26.757 14.5228 26.7651 14.7101 26.8362 14.8772C27.108 15.5519 27.2485 16.2724 27.25 16.9997C27.25 21.5485 21.75 25.2497 15 25.2497C8.24998 25.2497 2.74998 21.5485 2.74998 16.9997C2.75144 16.2741 2.89144 15.5554 3.16248 14.8822C3.23513 14.7146 3.2441 14.5263 3.18771 14.3525C3.13133 14.1787 3.01346 14.0315 2.85623 13.9385C2.56888 13.7684 2.323 13.5364 2.13642 13.2595C1.94985 12.9825 1.82727 12.6675 1.77757 12.3373C1.72786 12.007 1.75229 11.6699 1.84906 11.3503C1.94584 11.0307 2.11255 10.7366 2.33709 10.4895C2.56163 10.2423 2.83838 10.0482 3.14725 9.92126C3.45612 9.79433 3.78937 9.73774 4.12283 9.7556C4.45629 9.77345 4.78159 9.86531 5.07514 10.0245C5.36869 10.1837 5.62312 10.4063 5.81998 10.676C5.92809 10.8245 6.08696 10.9282 6.26645 10.9674C6.44594 11.0066 6.63356 10.9785 6.79373 10.8885C6.8083 10.8809 6.82248 10.8725 6.83623 10.8635C9.08748 9.49974 11.9862 8.74974 15 8.74974C18.0125 8.74974 20.91 9.49974 23.1612 10.8622L23.1812 10.876C23.3424 10.9749 23.535 11.0092 23.7204 10.9721C23.9059 10.935 24.0705 10.8293 24.1812 10.676C24.3781 10.4063 24.6325 10.1837 24.9261 10.0245C25.2196 9.86531 25.5449 9.77345 25.8784 9.7556C26.2118 9.73774 26.5451 9.79433 26.854 9.92126C27.1628 10.0482 27.4396 10.2423 27.6641 10.4895C27.8887 10.7366 28.0554 11.0307 28.1521 11.3503C28.2489 11.6699 28.2733 12.007 28.2236 12.3373C28.1739 12.6675 28.0514 12.9825 27.8648 13.2595C27.6782 13.5364 27.4323 13.7684 27.145 13.9385H27.1437ZM19.6625 20.6485C19.7556 20.8242 19.7751 21.0297 19.7167 21.2198C19.6584 21.4099 19.5269 21.5691 19.3512 21.6622C18.0112 22.3738 16.5172 22.7459 15 22.7459C13.4828 22.7459 11.9887 22.3738 10.6487 21.6622C10.4771 21.5669 10.3497 21.408 10.2939 21.2197C10.2381 21.0315 10.2584 20.8288 10.3504 20.6553C10.4423 20.4818 10.5987 20.3514 10.7858 20.2919C10.973 20.2324 11.176 20.2487 11.3512 20.3372C12.4748 20.9343 13.7276 21.2466 15 21.2466C16.2723 21.2466 17.5252 20.9343 18.6487 20.3372C18.8244 20.2441 19.0299 20.2246 19.22 20.283C19.4102 20.3413 19.5693 20.4728 19.6625 20.6485ZM9.99998 16.7497C9.65386 16.7497 9.31552 16.6471 9.02773 16.4548C8.73994 16.2625 8.51564 15.9892 8.38319 15.6694C8.25074 15.3497 8.21608 14.9978 8.2836 14.6583C8.35113 14.3189 8.5178 14.007 8.76254 13.7623C9.00728 13.5176 9.3191 13.3509 9.65857 13.2834C9.99804 13.2158 10.3499 13.2505 10.6697 13.383C10.9894 13.5154 11.2628 13.7397 11.455 14.0275C11.6473 14.3153 11.75 14.6536 11.75 14.9997C11.75 15.4639 11.5656 15.909 11.2374 16.2372C10.9092 16.5654 10.4641 16.7497 9.99998 16.7497ZM21.75 14.9997C21.75 15.3459 21.6473 15.6842 21.455 15.972C21.2628 16.2598 20.9894 16.4841 20.6697 16.6165C20.3499 16.749 19.998 16.7836 19.6586 16.7161C19.3191 16.6486 19.0073 16.4819 18.7625 16.2372C18.5178 15.9924 18.3511 15.6806 18.2836 15.3412C18.2161 15.0017 18.2507 14.6498 18.3832 14.33C18.5156 14.0103 18.7399 13.737 19.0277 13.5447C19.3155 13.3524 19.6539 13.2497 20 13.2497C20.4641 13.2497 20.9092 13.4341 21.2374 13.7623C21.5656 14.0905 21.75 14.5356 21.75 14.9997Z" fill="#087F93"/>
</svg>
